TITLE ""
FILE "2Q_t_1170-1187.mp3" MP3
  TRACK 01 AUDIO
    TITLE "2Q_t_1170-1187_01"
    INDEX 01 00:00:00
  TRACK 02 AUDIO
    TITLE "2Q_t_1170-1187_02"
    INDEX 01 00:00:16
  TRACK 03 AUDIO
    TITLE "2Q_t_1170-1187_03"
    INDEX 01 00:01:53
  TRACK 04 AUDIO
    TITLE "2Q_t_1170-1187_04"
    INDEX 01 00:02:29
  TRACK 05 AUDIO
    TITLE "2Q_t_1170-1187_05"
    INDEX 01 00:04:57
  TRACK 06 AUDIO
    TITLE "2Q_t_1170-1187_06"
    INDEX 01 00:05:29
  TRACK 07 AUDIO
    TITLE "2Q_t_1170-1187_07"
    INDEX 01 00:06:31
  TRACK 08 AUDIO
    TITLE "2Q_t_1170-1187_08"
    INDEX 01 00:07:03
  TRACK 09 AUDIO
    TITLE "2Q_t_1170-1187_09"
    INDEX 01 00:10:11
  TRACK 10 AUDIO
    TITLE "2Q_t_1170-1187_10"
    INDEX 01 00:10:60
  TRACK 11 AUDIO
    TITLE "2Q_t_1170-1187_11"
    INDEX 01 00:11:65
  TRACK 12 AUDIO
    TITLE "2Q_t_1170-1187_12"
    INDEX 01 00:12:43
  TRACK 13 AUDIO
    TITLE "2Q_t_1170-1187_13"
    INDEX 01 00:13:74
  TRACK 14 AUDIO
    TITLE "2Q_t_1170-1187_14"
    INDEX 01 00:14:44
  TRACK 15 AUDIO
    TITLE "2Q_t_1170-1187_15"
    INDEX 01 00:16:07
  TRACK 16 AUDIO
    TITLE "2Q_t_1170-1187_16"
    INDEX 01 00:16:54
  TRACK 17 AUDIO
    TITLE "2Q_t_1170-1187_17"
    INDEX 01 00:17:70
  TRACK 18 AUDIO
    TITLE "2Q_t_1170-1187_18"
    INDEX 01 00:18:38
  TRACK 19 AUDIO
    TITLE "2Q_t_1170-1187_19"
    INDEX 01 00:19:47
  TRACK 20 AUDIO
    TITLE "2Q_t_1170-1187_20"
    INDEX 01 00:20:25
  TRACK 21 AUDIO
    TITLE "2Q_t_1170-1187_21"
    INDEX 01 00:22:43
  TRACK 22 AUDIO
    TITLE "2Q_t_1170-1187_22"
    INDEX 01 00:23:15
  TRACK 23 AUDIO
    TITLE "2Q_t_1170-1187_23"
    INDEX 01 00:24:25
  TRACK 24 AUDIO
    TITLE "2Q_t_1170-1187_24"
    INDEX 01 00:24:73
  TRACK 25 AUDIO
    TITLE "2Q_t_1170-1187_25"
    INDEX 01 00:27:25
  TRACK 26 AUDIO
    TITLE "2Q_t_1170-1187_26"
    INDEX 01 00:27:70
  TRACK 27 AUDIO
    TITLE "2Q_t_1170-1187_27"
    INDEX 01 00:29:12
  TRACK 28 AUDIO
    TITLE "2Q_t_1170-1187_28"
    INDEX 01 00:29:59
  TRACK 29 AUDIO
    TITLE "2Q_t_1170-1187_29"
    INDEX 01 00:31:66
  TRACK 30 AUDIO
    TITLE "2Q_t_1170-1187_30"
    INDEX 01 00:32:32
  TRACK 31 AUDIO
    TITLE "2Q_t_1170-1187_31"
    INDEX 01 00:33:67
  TRACK 32 AUDIO
    TITLE "2Q_t_1170-1187_32"
    INDEX 01 00:34:43
  TRACK 33 AUDIO
    TITLE "2Q_t_1170-1187_33"
    INDEX 01 00:35:75
  TRACK 34 AUDIO
    TITLE "2Q_t_1170-1187_34"
    INDEX 01 00:36:45
  TRACK 35 AUDIO
    TITLE "2Q_t_1170-1187_35"
    INDEX 01 00:37:55
  TRACK 36 AUDIO
    TITLE "2Q_t_1170-1187_36"
    INDEX 01 00:38:30
  TRACK 37 AUDIO
    TITLE "2Q_t_1170-1187_37"
    INDEX 01 00:40:39
  TRACK 38 AUDIO
    TITLE "2Q_t_1170-1187_38"
    INDEX 01 00:41:09
  TRACK 39 AUDIO
    TITLE "2Q_t_1170-1187_39"
    INDEX 01 00:42:30
  TRACK 40 AUDIO
    TITLE "2Q_t_1170-1187_40"
    INDEX 01 00:43:04
  TRACK 41 AUDIO
    TITLE "2Q_t_1170-1187_41"
    INDEX 01 00:46:55
  TRACK 42 AUDIO
    TITLE "2Q_t_1170-1187_42"
    INDEX 01 00:47:27
  TRACK 43 AUDIO
    TITLE "2Q_t_1170-1187_43"
    INDEX 01 00:48:39
  TRACK 44 AUDIO
    TITLE "2Q_t_1170-1187_44"
    INDEX 01 00:49:22
  TRACK 45 AUDIO
    TITLE "2Q_t_1170-1187_45"
    INDEX 01 00:50:57
  TRACK 46 AUDIO
    TITLE "2Q_t_1170-1187_46"
    INDEX 01 00:51:27
  TRACK 47 AUDIO
    TITLE "2Q_t_1170-1187_47"
    INDEX 01 00:52:56
  TRACK 48 AUDIO
    TITLE "2Q_t_1170-1187_48"
    INDEX 01 00:53:28
  TRACK 49 AUDIO
    TITLE "2Q_t_1170-1187_49"
    INDEX 01 00:55:62
  TRACK 50 AUDIO
    TITLE "2Q_t_1170-1187_50"
    INDEX 01 00:56:32
  TRACK 51 AUDIO
    TITLE "2Q_t_1170-1187_51"
    INDEX 01 00:57:46
  TRACK 52 AUDIO
    TITLE "2Q_t_1170-1187_52"
    INDEX 01 00:58:18
  TRACK 53 AUDIO
    TITLE "2Q_t_1170-1187_53"
    INDEX 01 01:00:32
  TRACK 54 AUDIO
    TITLE "2Q_t_1170-1187_54"
    INDEX 01 01:01:04
  TRACK 55 AUDIO
    TITLE "2Q_t_1170-1187_55"
    INDEX 01 01:02:23
  TRACK 56 AUDIO
    TITLE "2Q_t_1170-1187_56"
    INDEX 01 01:02:74
  TRACK 57 AUDIO
    TITLE "2Q_t_1170-1187_57"
    INDEX 01 01:05:51
  TRACK 58 AUDIO
    TITLE "2Q_t_1170-1187_58"
    INDEX 01 01:06:21
  TRACK 59 AUDIO
    TITLE "2Q_t_1170-1187_59"
    INDEX 01 01:07:34
  TRACK 60 AUDIO
    TITLE "2Q_t_1170-1187_60"
    INDEX 01 01:08:16
  TRACK 61 AUDIO
    TITLE "2Q_t_1170-1187_61"
    INDEX 01 01:09:58
  TRACK 62 AUDIO
    TITLE "2Q_t_1170-1187_62"
    INDEX 01 01:10:31
  TRACK 63 AUDIO
    TITLE "2Q_t_1170-1187_63"
    INDEX 01 01:11:34
  TRACK 64 AUDIO
    TITLE "2Q_t_1170-1187_64"
    INDEX 01 01:12:14
  TRACK 65 AUDIO
    TITLE "2Q_t_1170-1187_65"
    INDEX 01 01:14:32
  TRACK 66 AUDIO
    TITLE "2Q_t_1170-1187_66"
    INDEX 01 01:15:02
  TRACK 67 AUDIO
    TITLE "2Q_t_1170-1187_67"
    INDEX 01 01:16:25
  TRACK 68 AUDIO
    TITLE "2Q_t_1170-1187_68"
    INDEX 01 01:17:01
  TRACK 69 AUDIO
    TITLE "2Q_t_1170-1187_69"
    INDEX 01 01:18:38
  TRACK 70 AUDIO
    TITLE "2Q_t_1170-1187_70"
    INDEX 01 01:19:10
  TRACK 71 AUDIO
    TITLE "2Q_t_1170-1187_71"
    INDEX 01 01:20:17
  TRACK 72 AUDIO
    TITLE "2Q_t_1170-1187_72"
    INDEX 01 01:20:66
  TRACK 73 AUDIO
    TITLE "2Q_t_1170-1187_73"
    INDEX 01 01:23:51
